<svg xmlns="http://www.w3.org/2000/svg" viewBox="0 0 3124 825" role="img" aria-label="Duckle"><title>Duckle</title><g transform="translate(-8.0,775.0) scale(1,-1)"><path transform="translate(0.0,0)" fill="#F6BA78" d="M290 -10Q230 -10 174.5 21.0Q119 52 83.5 111.0Q48 170 48 255Q48 340 83.5 399.0Q119 458 174.5 489.0Q230 520 290 520Q343 520 385.0 500.0Q427 480 461 444V689Q461 709 474.5 722.0Q488 735 507 735Q526 735 539.0 722.0Q552 709 552 689V40Q552 21 539.0 8.0Q526 -5 507 -5Q488 -5 474.5 8.0Q461 21 461 40V66Q427 30 385.0 10.0Q343 -10 290 -10ZM303 75Q352 75 392.0 96.5Q432 118 461 150V360Q432 392 392.0 413.5Q352 435 303 435Q232 435 185.5 389.5Q139 344 139 255Q139 167 185.5 121.0Q232 75 303 75Z"/><path transform="translate(631.0,0)" fill="#F6BA78" d="M253 -10Q196 -10 156.0 16.5Q116 43 95.0 88.0Q74 133 74 186V470Q74 489 87.5 502.0Q101 515 120 515Q139 515 152.0 502.0Q165 489 165 470V196Q165 139 191.0 106.5Q217 74 275 74Q329 74 369.0 103.5Q409 133 439 170V470Q439 489 452.5 502.0Q466 515 485 515Q504 515 517.0 502.0Q530 489 530 470V41Q530 22 517.0 8.5Q504 -5 485 -5Q466 -5 452.5 8.5Q439 22 439 41V82Q408 48 364.0 19.0Q320 -10 253 -10Z"/><path transform="translate(1240.0,0)" fill="#F6BA78" d="M315 -10Q244 -10 183.0 21.5Q122 53 85.0 112.5Q48 172 48 255Q48 339 85.0 398.0Q122 457 183.0 488.5Q244 520 315 520Q374 520 413.5 504.5Q453 489 478 472Q498 459 498 437Q498 423 487.0 410.0Q476 397 460 397Q449 397 438 403Q412 417 387.0 426.0Q362 435 323 435Q236 435 187.5 385.0Q139 335 139 255Q139 175 187.5 125.0Q236 75 323 75Q362 75 387.0 84.5Q412 94 438 107Q449 113 460 113Q476 113 487.0 100.0Q498 87 498 73Q498 51 478 38Q453 22 413.5 6.0Q374 -10 315 -10Z"/><path transform="translate(1773.0,0)" fill="#EA7E42" d="M124 -5Q105 -5 92.0 8.0Q79 21 79 40V689Q79 708 92.0 721.5Q105 735 124 735Q143 735 156.5 721.5Q170 708 170 689V280L408 500Q414 505 421.5 509.0Q429 513 438 513Q464 513 473.0 498.5Q482 484 482 469Q482 463 479.0 454.5Q476 446 465 435L321 306L502 66Q512 53 512 39Q512 19 499.0 7.0Q486 -5 466 -5Q445 -5 429 14L257 248L170 169V40Q170 21 156.5 8.0Q143 -5 124 -5Z"/><path transform="translate(2318.0,0)" fill="#EA7E42" d="M124 -5Q105 -5 92.0 8.0Q79 21 79 40V689Q79 709 92.0 722.0Q105 735 124 735Q144 735 157.0 722.0Q170 709 170 689V40Q170 21 157.0 8.0Q144 -5 124 -5Z"/><path transform="translate(2567.0,0)" fill="#F6BA78" d="M307 -10Q185 -10 116.5 59.5Q48 129 48 255Q48 323 73.0 383.5Q98 444 151.0 482.0Q204 520 287 520Q364 520 417.0 484.5Q470 449 497.5 392.0Q525 335 525 268Q525 249 512.5 236.0Q500 223 479 223H140Q148 156 191.0 115.5Q234 75 315 75Q360 75 391.0 83.5Q422 92 450 106Q458 110 468 110Q484 110 496.0 99.0Q508 88 508 71Q508 59 500.5 49.5Q493 40 482 34Q449 15 410.5 2.5Q372 -10 307 -10ZM140 297H435Q432 349 408.5 381.0Q385 413 352.0 428.0Q319 443 287 443Q255 443 222.0 428.0Q189 413 166.0 381.0Q143 349 140 297Z"/></g></svg>